<svg width="250" height="100" viewBox="0 0 95 15" fill="none" xmlns="http://www.w3.org/2000/svg">
<path d="M8.464 5.58C9.08 5.58 9.632 5.716 10.12 5.988C10.608 6.26 10.988 6.64 11.26 7.128C11.54 7.616 11.68 8.18 11.68 8.82C11.68 9.46 11.54 10.028 11.26 10.524C10.988 11.012 10.608 11.392 10.12 11.664C9.632 11.936 9.08 12.072 8.464 12.072C8.008 12.072 7.588 11.984 7.204 11.808C6.828 11.632 6.508 11.376 6.244 11.04V14.328H5.092V5.64H6.196V6.648C6.452 6.296 6.776 6.032 7.168 5.856C7.56 5.672 7.992 5.58 8.464 5.58ZM8.368 11.064C8.776 11.064 9.14 10.972 9.46 10.788C9.788 10.596 10.044 10.332 10.228 9.996C10.42 9.652 10.516 9.26 10.516 8.82C10.516 8.38 10.42 7.992 10.228 7.656C10.044 7.312 9.788 7.048 9.46 6.864C9.14 6.68 8.776 6.588 8.368 6.588C7.968 6.588 7.604 6.684 7.276 6.876C6.956 7.06 6.7 7.32 6.508 7.656C6.324 7.992 6.232 8.38 6.232 8.82C6.232 9.26 6.324 9.652 6.508 9.996C6.692 10.332 6.948 10.596 7.276 10.788C7.604 10.972 7.968 11.064 8.368 11.064ZM15.0957 12.072C14.5757 12.072 14.0757 12.004 13.5957 11.868C13.1157 11.724 12.7397 11.544 12.4677 11.328L12.9477 10.416C13.2277 10.616 13.5677 10.776 13.9677 10.896C14.3677 11.016 14.7717 11.076 15.1797 11.076C16.1877 11.076 16.6917 10.788 16.6917 10.212C16.6917 10.02 16.6237 9.868 16.4877 9.756C16.3517 9.644 16.1797 9.564 15.9717 9.516C15.7717 9.46 15.4837 9.4 15.1077 9.336C14.5957 9.256 14.1757 9.164 13.8477 9.06C13.5277 8.956 13.2517 8.78 13.0197 8.532C12.7877 8.284 12.6717 7.936 12.6717 7.488C12.6717 6.912 12.9117 6.452 13.3917 6.108C13.8717 5.756 14.5157 5.58 15.3237 5.58C15.7477 5.58 16.1717 5.632 16.5957 5.736C17.0197 5.84 17.3677 5.98 17.6397 6.156L17.1477 7.068C16.6277 6.732 16.0157 6.564 15.3117 6.564C14.8237 6.564 14.4517 6.644 14.1957 6.804C13.9397 6.964 13.8117 7.176 13.8117 7.44C13.8117 7.648 13.8837 7.812 14.0277 7.932C14.1717 8.052 14.3477 8.14 14.5557 8.196C14.7717 8.252 15.0717 8.316 15.4557 8.388C15.9677 8.476 16.3797 8.572 16.6917 8.676C17.0117 8.772 17.2837 8.94 17.5077 9.18C17.7317 9.42 17.8437 9.756 17.8437 10.188C17.8437 10.764 17.5957 11.224 17.0997 11.568C16.6117 11.904 15.9437 12.072 15.0957 12.072ZM19.2834 5.64H20.4354V12H19.2834V5.64ZM19.8594 4.416C19.6354 4.416 19.4474 4.344 19.2954 4.2C19.1514 4.056 19.0794 3.88 19.0794 3.672C19.0794 3.464 19.1514 3.288 19.2954 3.144C19.4474 2.992 19.6354 2.916 19.8594 2.916C20.0834 2.916 20.2674 2.988 20.4114 3.132C20.5634 3.268 20.6394 3.44 20.6394 3.648C20.6394 3.864 20.5634 4.048 20.4114 4.2C20.2674 4.344 20.0834 4.416 19.8594 4.416ZM25.107 9.036L23.787 10.26V12H22.635V3.096H23.787V8.808L27.255 5.64H28.647L25.971 8.268L28.911 12H27.495L25.107 9.036ZM32.484 12.072C31.852 12.072 31.284 11.932 30.78 11.652C30.276 11.372 29.88 10.988 29.592 10.5C29.312 10.004 29.172 9.444 29.172 8.82C29.172 8.196 29.312 7.64 29.592 7.152C29.88 6.656 30.276 6.272 30.78 6C31.284 5.72 31.852 5.58 32.484 5.58C33.116 5.58 33.68 5.72 34.176 6C34.68 6.272 35.072 6.656 35.352 7.152C35.64 7.64 35.784 8.196 35.784 8.82C35.784 9.444 35.64 10.004 35.352 10.5C35.072 10.988 34.68 11.372 34.176 11.652C33.68 11.932 33.116 12.072 32.484 12.072ZM32.484 11.064C32.892 11.064 33.256 10.972 33.576 10.788C33.904 10.596 34.16 10.332 34.344 9.996C34.528 9.652 34.62 9.26 34.62 8.82C34.62 8.38 34.528 7.992 34.344 7.656C34.16 7.312 33.904 7.048 33.576 6.864C33.256 6.68 32.892 6.588 32.484 6.588C32.076 6.588 31.708 6.68 31.38 6.864C31.06 7.048 30.804 7.312 30.612 7.656C30.428 7.992 30.336 8.38 30.336 8.82C30.336 9.26 30.428 9.652 30.612 9.996C30.804 10.332 31.06 10.596 31.38 10.788C31.708 10.972 32.076 11.064 32.484 11.064ZM39.3092 12.072C38.6932 12.072 38.2172 11.904 37.8812 11.568C37.5452 11.224 37.3772 10.744 37.3772 10.128V3.096H38.5292V10.032C38.5292 10.376 38.6092 10.64 38.7692 10.824C38.9372 11.008 39.1852 11.1 39.5132 11.1C39.7132 11.1 39.9012 11.06 40.0772 10.98L40.1372 11.928C39.8732 12.024 39.5972 12.072 39.3092 12.072ZM43.8394 12.072C43.2074 12.072 42.6394 11.932 42.1354 11.652C41.6314 11.372 41.2354 10.988 40.9474 10.5C40.6674 10.004 40.5274 9.444 40.5274 8.82C40.5274 8.196 40.6674 7.64 40.9474 7.152C41.2354 6.656 41.6314 6.272 42.1354 6C42.6394 5.72 43.2074 5.58 43.8394 5.58C44.4714 5.58 45.0354 5.72 45.5314 6C46.0354 6.272 46.4274 6.656 46.7074 7.152C46.9954 7.64 47.1394 8.196 47.1394 8.82C47.1394 9.444 46.9954 10.004 46.7074 10.5C46.4274 10.988 46.0354 11.372 45.5314 11.652C45.0354 11.932 44.4714 12.072 43.8394 12.072ZM43.8394 11.064C44.2474 11.064 44.6114 10.972 44.9314 10.788C45.2594 10.596 45.5154 10.332 45.6994 9.996C45.8834 9.652 45.9754 9.26 45.9754 8.82C45.9754 8.38 45.8834 7.992 45.6994 7.656C45.5154 7.312 45.2594 7.048 44.9314 6.864C44.6114 6.68 44.2474 6.588 43.8394 6.588C43.4314 6.588 43.0634 6.68 42.7354 6.864C42.4154 7.048 42.1594 7.312 41.9674 7.656C41.7834 7.992 41.6914 8.38 41.6914 8.82C41.6914 9.26 41.7834 9.652 41.9674 9.996C42.1594 10.332 42.4154 10.596 42.7354 10.788C43.0634 10.972 43.4314 11.064 43.8394 11.064ZM54.8166 5.64V11.136C54.8166 12.248 54.5406 13.068 53.9886 13.596C53.4366 14.132 52.6126 14.4 51.5166 14.4C50.9166 14.4 50.3446 14.316 49.8006 14.148C49.2566 13.988 48.8166 13.756 48.4806 13.452L49.0326 12.564C49.3286 12.82 49.6926 13.02 50.1246 13.164C50.5646 13.316 51.0166 13.392 51.4806 13.392C52.2246 13.392 52.7726 13.216 53.1246 12.864C53.4846 12.512 53.6646 11.976 53.6646 11.256V10.752C53.3926 11.08 53.0566 11.328 52.6566 11.496C52.2646 11.656 51.8366 11.736 51.3726 11.736C50.7646 11.736 50.2126 11.608 49.7166 11.352C49.2286 11.088 48.8446 10.724 48.5646 10.26C48.2846 9.788 48.1446 9.252 48.1446 8.652C48.1446 8.052 48.2846 7.52 48.5646 7.056C48.8446 6.584 49.2286 6.22 49.7166 5.964C50.2126 5.708 50.7646 5.58 51.3726 5.58C51.8526 5.58 52.2966 5.668 52.7046 5.844C53.1206 6.02 53.4606 6.28 53.7246 6.624V5.64H54.8166ZM51.5046 10.728C51.9206 10.728 52.2926 10.64 52.6206 10.464C52.9566 10.288 53.2166 10.044 53.4006 9.732C53.5926 9.412 53.6886 9.052 53.6886 8.652C53.6886 8.036 53.4846 7.54 53.0766 7.164C52.6686 6.78 52.1446 6.588 51.5046 6.588C50.8566 6.588 50.3286 6.78 49.9206 7.164C49.5126 7.54 49.3086 8.036 49.3086 8.652C49.3086 9.052 49.4006 9.412 49.5846 9.732C49.7766 10.044 50.0366 10.288 50.3646 10.464C50.7006 10.64 51.0806 10.728 51.5046 10.728ZM60.3898 5.58C61.0058 5.58 61.5578 5.716 62.0458 5.988C62.5338 6.26 62.9138 6.64 63.1858 7.128C63.4658 7.616 63.6058 8.18 63.6058 8.82C63.6058 9.46 63.4658 10.028 63.1858 10.524C62.9138 11.012 62.5338 11.392 62.0458 11.664C61.5578 11.936 61.0058 12.072 60.3898 12.072C59.9178 12.072 59.4858 11.98 59.0938 11.796C58.7018 11.612 58.3778 11.344 58.1218 10.992V12H57.0178V3.096H58.1698V6.6C58.4258 6.264 58.7458 6.012 59.1298 5.844C59.5138 5.668 59.9338 5.58 60.3898 5.58ZM60.2938 11.064C60.7018 11.064 61.0658 10.972 61.3858 10.788C61.7138 10.596 61.9698 10.332 62.1538 9.996C62.3458 9.652 62.4418 9.26 62.4418 8.82C62.4418 8.38 62.3458 7.992 62.1538 7.656C61.9698 7.312 61.7138 7.048 61.3858 6.864C61.0658 6.68 60.7018 6.588 60.2938 6.588C59.8938 6.588 59.5298 6.68 59.2018 6.864C58.8738 7.048 58.6178 7.312 58.4338 7.656C58.2498 7.992 58.1578 8.38 58.1578 8.82C58.1578 9.26 58.2498 9.652 58.4338 9.996C58.6178 10.332 58.8738 10.596 59.2018 10.788C59.5298 10.972 59.8938 11.064 60.2938 11.064ZM71.1255 5.64V12H70.0335V11.04C69.8015 11.368 69.4935 11.624 69.1095 11.808C68.7335 11.984 68.3215 12.072 67.8735 12.072C67.0255 12.072 66.3575 11.84 65.8695 11.376C65.3815 10.904 65.1375 10.212 65.1375 9.3V5.64H66.2895V9.168C66.2895 9.784 66.4375 10.252 66.7335 10.572C67.0295 10.884 67.4535 11.04 68.0055 11.04C68.6135 11.04 69.0935 10.856 69.4455 10.488C69.7975 10.12 69.9735 9.6 69.9735 8.928V5.64H71.1255ZM75.2506 12.072C74.6346 12.072 74.1586 11.904 73.8226 11.568C73.4866 11.224 73.3186 10.744 73.3186 10.128V3.096H74.4706V10.032C74.4706 10.376 74.5506 10.64 74.7106 10.824C74.8786 11.008 75.1266 11.1 75.4546 11.1C75.6546 11.1 75.8426 11.06 76.0186 10.98L76.0786 11.928C75.8146 12.024 75.5386 12.072 75.2506 12.072ZM77.7782 12.072C77.5542 12.072 77.3622 11.996 77.2022 11.844C77.0422 11.684 76.9622 11.484 76.9622 11.244C76.9622 11.012 77.0422 10.82 77.2022 10.668C77.3622 10.508 77.5542 10.428 77.7782 10.428C78.0022 10.428 78.1902 10.504 78.3422 10.656C78.4942 10.808 78.5702 11.004 78.5702 11.244C78.5702 11.484 78.4902 11.684 78.3302 11.844C78.1782 11.996 77.9942 12.072 77.7782 12.072ZM80.2209 5.64H81.3729V12H80.2209V5.64ZM80.7969 4.416C80.5729 4.416 80.3849 4.344 80.2329 4.2C80.0889 4.056 80.0169 3.88 80.0169 3.672C80.0169 3.464 80.0889 3.288 80.2329 3.144C80.3849 2.992 80.5729 2.916 80.7969 2.916C81.0209 2.916 81.2049 2.988 81.3489 3.132C81.5009 3.268 81.5769 3.44 81.5769 3.648C81.5769 3.864 81.5009 4.048 81.3489 4.2C81.2049 4.344 81.0209 4.416 80.7969 4.416ZM86.2965 12.072C85.6645 12.072 85.0965 11.932 84.5925 11.652C84.0885 11.372 83.6925 10.988 83.4045 10.5C83.1245 10.004 82.9845 9.444 82.9845 8.82C82.9845 8.196 83.1245 7.64 83.4045 7.152C83.6925 6.656 84.0885 6.272 84.5925 6C85.0965 5.72 85.6645 5.58 86.2965 5.58C86.9285 5.58 87.4925 5.72 87.9885 6C88.4925 6.272 88.8845 6.656 89.1645 7.152C89.4525 7.64 89.5965 8.196 89.5965 8.82C89.5965 9.444 89.4525 10.004 89.1645 10.5C88.8845 10.988 88.4925 11.372 87.9885 11.652C87.4925 11.932 86.9285 12.072 86.2965 12.072ZM86.2965 11.064C86.7045 11.064 87.0685 10.972 87.3885 10.788C87.7165 10.596 87.9725 10.332 88.1565 9.996C88.3405 9.652 88.4325 9.26 88.4325 8.82C88.4325 8.38 88.3405 7.992 88.1565 7.656C87.9725 7.312 87.7165 7.048 87.3885 6.864C87.0685 6.68 86.7045 6.588 86.2965 6.588C85.8885 6.588 85.5205 6.68 85.1925 6.864C84.8725 7.048 84.6165 7.312 84.4245 7.656C84.2405 7.992 84.1485 8.38 84.1485 8.82C84.1485 9.26 84.2405 9.652 84.4245 9.996C84.6165 10.332 84.8725 10.596 85.1925 10.788C85.5205 10.972 85.8885 11.064 86.2965 11.064Z" fill="url(#paint0_linear_9_19)"/>
<path d="M1.95117 9.16992C1.97852 9.16992 1.99219 9.18164 1.99219 9.20508C1.99219 9.21289 2 9.22656 2.01562 9.24609C2.03516 9.26562 2.05078 9.2793 2.0625 9.28711C2.07812 9.29102 2.08594 9.31836 2.08594 9.36914V9.38672L2.10938 9.41016C2.125 9.45312 2.13477 9.49805 2.13867 9.54492C2.14258 9.58789 2.1543 9.63281 2.17383 9.67969C2.16602 9.6875 2.15625 9.70703 2.14453 9.73828C2.13281 9.76562 2.12695 9.78516 2.12695 9.79688C2.12695 9.80859 2.13281 9.81641 2.14453 9.82031C2.15625 9.82422 2.16211 9.83984 2.16211 9.86719C2.16211 9.89062 2.15234 9.91797 2.13281 9.94922C2.11719 9.97656 2.10938 10.0059 2.10938 10.0371L2.11523 10.0898C2.11523 10.1211 2.10352 10.1543 2.08008 10.1895C2.06055 10.2207 2.03516 10.2402 2.00391 10.248C1.99609 10.2559 1.99219 10.2637 1.99219 10.2715C1.99609 10.2754 1.99805 10.2832 1.99805 10.2949C1.99805 10.3066 1.99219 10.3145 1.98047 10.3184V10.3242C1.98047 10.332 1.96875 10.3418 1.94531 10.3535C1.92578 10.3652 1.90625 10.3809 1.88672 10.4004C1.87109 10.4199 1.85352 10.4375 1.83398 10.4531V10.4766C1.83398 10.5 1.82617 10.5176 1.81055 10.5293C1.79883 10.5371 1.79102 10.5508 1.78711 10.5703C1.70898 10.6094 1.65039 10.6484 1.61133 10.6875H1.51758C1.50195 10.6875 1.48438 10.6953 1.46484 10.7109C1.44531 10.7266 1.42578 10.7383 1.40625 10.7461C1.39062 10.7539 1.36914 10.7598 1.3418 10.7637C1.31836 10.7637 1.29688 10.7656 1.27734 10.7695L1.26562 10.7578C1.26562 10.7656 1.25977 10.7695 1.24805 10.7695L1.16602 10.7461L1.01367 10.7578L0.861328 10.7227C0.853516 10.707 0.84375 10.6934 0.832031 10.6816C0.820312 10.6699 0.810547 10.6543 0.802734 10.6348L0.703125 10.6055C0.695312 10.5977 0.6875 10.5879 0.679688 10.5762C0.675781 10.5605 0.666016 10.5527 0.650391 10.5527C0.638672 10.5527 0.626953 10.5547 0.615234 10.5586C0.603516 10.5469 0.599609 10.5352 0.603516 10.5234C0.607422 10.5117 0.599609 10.5059 0.580078 10.5059C0.560547 10.5059 0.550781 10.498 0.550781 10.4824C0.550781 10.4668 0.541016 10.4609 0.521484 10.4648C0.517578 10.4492 0.511719 10.4355 0.503906 10.4238C0.46875 10.373 0.451172 10.3301 0.451172 10.2949C0.443359 10.2793 0.433594 10.2695 0.421875 10.2656C0.410156 10.2617 0.400391 10.2559 0.392578 10.248C0.314453 10.0762 0.275391 9.94531 0.275391 9.85547C0.275391 9.76562 0.279297 9.70117 0.287109 9.66211C0.298828 9.61914 0.310547 9.58008 0.322266 9.54492C0.337891 9.50977 0.355469 9.47461 0.375 9.43945C0.394531 9.4043 0.412109 9.36133 0.427734 9.31055C0.458984 9.29883 0.478516 9.27734 0.486328 9.24609C0.498047 9.21484 0.509766 9.19531 0.521484 9.1875C0.537109 9.17969 0.546875 9.17578 0.550781 9.17578C0.558594 9.17578 0.564453 9.17383 0.568359 9.16992C0.576172 9.16211 0.578125 9.15625 0.574219 9.15234C0.574219 9.14453 0.576172 9.13672 0.580078 9.12891C0.587891 9.11719 0.605469 9.09961 0.632812 9.07617C0.664062 9.04883 0.683594 9.03125 0.691406 9.02344C0.703125 9.01562 0.714844 9.01172 0.726562 9.01172C0.742188 9.00781 0.757812 9.00195 0.773438 8.99414C0.789062 8.98633 0.806641 8.97656 0.826172 8.96484C0.849609 8.95312 0.880859 8.94336 0.919922 8.93555C0.962891 8.92383 1.01172 8.91602 1.06641 8.91211C1.12109 8.9082 1.17383 8.89062 1.22461 8.85938C1.27148 8.87891 1.32031 8.89453 1.37109 8.90625C1.42188 8.91406 1.4707 8.92383 1.51758 8.93555C1.52148 8.95508 1.52734 8.9707 1.53516 8.98242C1.54297 8.99023 1.54883 9.00391 1.55273 9.02344L1.75195 8.99414C1.77148 8.99414 1.80664 9.01758 1.85742 9.06445C1.9082 9.10742 1.92969 9.13867 1.92188 9.1582C1.92969 9.16602 1.93945 9.16992 1.95117 9.16992ZM1.41797 10.5059C1.46094 10.4746 1.50195 10.4609 1.54102 10.4648C1.54883 10.4453 1.56055 10.4336 1.57617 10.4297C1.5957 10.4219 1.61719 10.4082 1.64062 10.3887C1.66797 10.3652 1.69141 10.3359 1.71094 10.3008C1.73047 10.2617 1.75781 10.2324 1.79297 10.2129C1.80078 10.1816 1.81445 10.1562 1.83398 10.1367C1.85352 10.1133 1.87109 10.0918 1.88672 10.0723C1.90625 10.0488 1.91797 10.0215 1.92188 9.99023C1.92969 9.95508 1.9375 9.91016 1.94531 9.85547C1.95312 9.80078 1.95703 9.74609 1.95703 9.69141C1.95703 9.63672 1.94727 9.59961 1.92773 9.58008C1.91211 9.56055 1.90234 9.53906 1.89844 9.51562C1.89453 9.49219 1.89258 9.47461 1.89258 9.46289C1.89648 9.44727 1.89844 9.42969 1.89844 9.41016V9.39258C1.875 9.36914 1.85156 9.35156 1.82812 9.33984C1.80859 9.32422 1.78906 9.30664 1.76953 9.28711C1.67969 9.2832 1.5957 9.26562 1.51758 9.23438C1.44336 9.20312 1.36328 9.18164 1.27734 9.16992C1.23438 9.14258 1.19531 9.12891 1.16016 9.12891C1.125 9.12891 1.10156 9.13086 1.08984 9.13477C1.07812 9.13477 1.06836 9.13672 1.06055 9.14062C1.05273 9.14453 1.04492 9.15039 1.03711 9.1582C1.0293 9.16211 1.01758 9.16797 1.00195 9.17578C0.990234 9.17969 0.976562 9.18164 0.960938 9.18164C0.949219 9.17773 0.933594 9.17969 0.914062 9.1875C0.898438 9.19141 0.878906 9.20117 0.855469 9.2168C0.835938 9.23242 0.816406 9.24414 0.796875 9.25195C0.789062 9.2793 0.775391 9.30273 0.755859 9.32227C0.740234 9.33789 0.722656 9.375 0.703125 9.43359C0.6875 9.48828 0.679688 9.53516 0.679688 9.57422C0.679688 9.60938 0.693359 9.69531 0.720703 9.83203L0.708984 9.84375C0.716797 9.87891 0.724609 9.91016 0.732422 9.9375C0.744141 9.96094 0.751953 9.98242 0.755859 10.002C0.763672 10.0215 0.765625 10.0371 0.761719 10.0488C0.761719 10.0566 0.761719 10.0664 0.761719 10.0781L0.785156 10.1719V10.1777L0.808594 10.2012V10.2246C0.808594 10.2324 0.814453 10.2441 0.826172 10.2598C0.837891 10.2715 0.84375 10.293 0.84375 10.3242C0.867188 10.3398 0.890625 10.3633 0.914062 10.3945C0.9375 10.4219 0.960938 10.4434 0.984375 10.459C1.01172 10.4746 1.05078 10.4863 1.10156 10.4941C1.15234 10.498 1.19922 10.5098 1.24219 10.5293C1.30469 10.5137 1.36328 10.5059 1.41797 10.5059Z" fill="#1D2F6F"/>
<path d="M93.9512 9.16992C93.9785 9.16992 93.9922 9.18164 93.9922 9.20508C93.9922 9.21289 94 9.22656 94.0156 9.24609C94.0352 9.26562 94.0508 9.2793 94.0625 9.28711C94.0781 9.29102 94.0859 9.31836 94.0859 9.36914V9.38672L94.1094 9.41016C94.125 9.45312 94.1348 9.49805 94.1387 9.54492C94.1426 9.58789 94.1543 9.63281 94.1738 9.67969C94.166 9.6875 94.1562 9.70703 94.1445 9.73828C94.1328 9.76562 94.127 9.78516 94.127 9.79688C94.127 9.80859 94.1328 9.81641 94.1445 9.82031C94.1562 9.82422 94.1621 9.83984 94.1621 9.86719C94.1621 9.89062 94.1523 9.91797 94.1328 9.94922C94.1172 9.97656 94.1094 10.0059 94.1094 10.0371L94.1152 10.0898C94.1152 10.1211 94.1035 10.1543 94.0801 10.1895C94.0605 10.2207 94.0352 10.2402 94.0039 10.248C93.9961 10.2559 93.9922 10.2637 93.9922 10.2715C93.9961 10.2754 93.998 10.2832 93.998 10.2949C93.998 10.3066 93.9922 10.3145 93.9805 10.3184V10.3242C93.9805 10.332 93.9688 10.3418 93.9453 10.3535C93.9258 10.3652 93.9062 10.3809 93.8867 10.4004C93.8711 10.4199 93.8535 10.4375 93.834 10.4531V10.4766C93.834 10.5 93.8262 10.5176 93.8105 10.5293C93.7988 10.5371 93.791 10.5508 93.7871 10.5703C93.709 10.6094 93.6504 10.6484 93.6113 10.6875H93.5176C93.502 10.6875 93.4844 10.6953 93.4648 10.7109C93.4453 10.7266 93.4258 10.7383 93.4062 10.7461C93.3906 10.7539 93.3691 10.7598 93.3418 10.7637C93.3184 10.7637 93.2969 10.7656 93.2773 10.7695L93.2656 10.7578C93.2656 10.7656 93.2598 10.7695 93.248 10.7695L93.166 10.7461L93.0137 10.7578L92.8613 10.7227C92.8535 10.707 92.8438 10.6934 92.832 10.6816C92.8203 10.6699 92.8105 10.6543 92.8027 10.6348L92.7031 10.6055C92.6953 10.5977 92.6875 10.5879 92.6797 10.5762C92.6758 10.5605 92.666 10.5527 92.6504 10.5527C92.6387 10.5527 92.627 10.5547 92.6152 10.5586C92.6035 10.5469 92.5996 10.5352 92.6035 10.5234C92.6074 10.5117 92.5996 10.5059 92.5801 10.5059C92.5605 10.5059 92.5508 10.498 92.5508 10.4824C92.5508 10.4668 92.541 10.4609 92.5215 10.4648C92.5176 10.4492 92.5117 10.4355 92.5039 10.4238C92.4688 10.373 92.4512 10.3301 92.4512 10.2949C92.4434 10.2793 92.4336 10.2695 92.4219 10.2656C92.4102 10.2617 92.4004 10.2559 92.3926 10.248C92.3145 10.0762 92.2754 9.94531 92.2754 9.85547C92.2754 9.76562 92.2793 9.70117 92.2871 9.66211C92.2988 9.61914 92.3105 9.58008 92.3223 9.54492C92.3379 9.50977 92.3555 9.47461 92.375 9.43945C92.3945 9.4043 92.4121 9.36133 92.4277 9.31055C92.459 9.29883 92.4785 9.27734 92.4863 9.24609C92.498 9.21484 92.5098 9.19531 92.5215 9.1875C92.5371 9.17969 92.5469 9.17578 92.5508 9.17578C92.5586 9.17578 92.5645 9.17383 92.5684 9.16992C92.5762 9.16211 92.5781 9.15625 92.5742 9.15234C92.5742 9.14453 92.5762 9.13672 92.5801 9.12891C92.5879 9.11719 92.6055 9.09961 92.6328 9.07617C92.6641 9.04883 92.6836 9.03125 92.6914 9.02344C92.7031 9.01562 92.7148 9.01172 92.7266 9.01172C92.7422 9.00781 92.7578 9.00195 92.7734 8.99414C92.7891 8.98633 92.8066 8.97656 92.8262 8.96484C92.8496 8.95312 92.8809 8.94336 92.9199 8.93555C92.9629 8.92383 93.0117 8.91602 93.0664 8.91211C93.1211 8.9082 93.1738 8.89062 93.2246 8.85938C93.2715 8.87891 93.3203 8.89453 93.3711 8.90625C93.4219 8.91406 93.4707 8.92383 93.5176 8.93555C93.5215 8.95508 93.5273 8.9707 93.5352 8.98242C93.543 8.99023 93.5488 9.00391 93.5527 9.02344L93.752 8.99414C93.7715 8.99414 93.8066 9.01758 93.8574 9.06445C93.9082 9.10742 93.9297 9.13867 93.9219 9.1582C93.9297 9.16602 93.9395 9.16992 93.9512 9.16992ZM93.418 10.5059C93.4609 10.4746 93.502 10.4609 93.541 10.4648C93.5488 10.4453 93.5605 10.4336 93.5762 10.4297C93.5957 10.4219 93.6172 10.4082 93.6406 10.3887C93.668 10.3652 93.6914 10.3359 93.7109 10.3008C93.7305 10.2617 93.7578 10.2324 93.793 10.2129C93.8008 10.1816 93.8145 10.1562 93.834 10.1367C93.8535 10.1133 93.8711 10.0918 93.8867 10.0723C93.9062 10.0488 93.918 10.0215 93.9219 9.99023C93.9297 9.95508 93.9375 9.91016 93.9453 9.85547C93.9531 9.80078 93.957 9.74609 93.957 9.69141C93.957 9.63672 93.9473 9.59961 93.9277 9.58008C93.9121 9.56055 93.9023 9.53906 93.8984 9.51562C93.8945 9.49219 93.8926 9.47461 93.8926 9.46289C93.8965 9.44727 93.8984 9.42969 93.8984 9.41016V9.39258C93.875 9.36914 93.8516 9.35156 93.8281 9.33984C93.8086 9.32422 93.7891 9.30664 93.7695 9.28711C93.6797 9.2832 93.5957 9.26562 93.5176 9.23438C93.4434 9.20312 93.3633 9.18164 93.2773 9.16992C93.2344 9.14258 93.1953 9.12891 93.1602 9.12891C93.125 9.12891 93.1016 9.13086 93.0898 9.13477C93.0781 9.13477 93.0684 9.13672 93.0605 9.14062C93.0527 9.14453 93.0449 9.15039 93.0371 9.1582C93.0293 9.16211 93.0176 9.16797 93.002 9.17578C92.9902 9.17969 92.9766 9.18164 92.9609 9.18164C92.9492 9.17773 92.9336 9.17969 92.9141 9.1875C92.8984 9.19141 92.8789 9.20117 92.8555 9.2168C92.8359 9.23242 92.8164 9.24414 92.7969 9.25195C92.7891 9.2793 92.7754 9.30273 92.7559 9.32227C92.7402 9.33789 92.7227 9.375 92.7031 9.43359C92.6875 9.48828 92.6797 9.53516 92.6797 9.57422C92.6797 9.60938 92.6934 9.69531 92.7207 9.83203L92.709 9.84375C92.7168 9.87891 92.7246 9.91016 92.7324 9.9375C92.7441 9.96094 92.752 9.98242 92.7559 10.002C92.7637 10.0215 92.7656 10.0371 92.7617 10.0488C92.7617 10.0566 92.7617 10.0664 92.7617 10.0781L92.7852 10.1719V10.1777L92.8086 10.2012V10.2246C92.8086 10.2324 92.8145 10.2441 92.8262 10.2598C92.8379 10.2715 92.8438 10.293 92.8438 10.3242C92.8672 10.3398 92.8906 10.3633 92.9141 10.3945C92.9375 10.4219 92.9609 10.4434 92.9844 10.459C93.0117 10.4746 93.0508 10.4863 93.1016 10.4941C93.1523 10.498 93.1992 10.5098 93.2422 10.5293C93.3047 10.5137 93.3633 10.5059 93.418 10.5059Z" fill="#1D2F6F"/>
<defs>
<linearGradient id="paint0_linear_9_19" x1="-4.34247" y1="15" x2="117.815" y2="15" gradientUnits="userSpaceOnUse">
<stop offset="0.0733475" stop-color="#1D2F6F"/>
<stop offset="0.109375" stop-color="#1D2F6F"/>
<stop offset="0.266408" stop-color="#27387C" stop-opacity="0.906492"/>
<stop offset="0.414042" stop-color="#33448D" stop-opacity="0.785895"/>
<stop offset="0.631709" stop-color="#4757A8" stop-opacity="0.587629"/>
<stop offset="0.862624" stop-color="#5867BF" stop-opacity="0.424146"/>
<stop offset="1" stop-color="#8390FA" stop-opacity="0"/>
</linearGradient>
</defs>
</svg>
